<svg width="704" height="627" viewBox="0 0 704 627" fill="none" xmlns="http://www.w3.org/2000/svg">
<g clip-path="url(#clip0)">
<path d="M704 600.041H0V601.606H704V600.041Z" fill="#3F3D56"/>
<path d="M670.484 582.254H649.014V600.544H670.484V582.254Z" fill="#00BFA6"/>
<path d="M106.168 575.84L89.4768 587.344L102.982 601.563L119.673 590.058L106.168 575.84Z" fill="#00BFA6"/>
<path d="M352.919 71.2998H351.081V328.09H352.919V71.2998Z" fill="#3F3D56"/>
<path d="M576.251 95.5696H454.935V97.1355H576.251V95.5696Z" fill="#3F3D56"/>
<path d="M249.065 95.5696H127.749V97.1355H249.065V95.5696Z" fill="#3F3D56"/>
<path d="M128.126 14.8624L127.372 13.4342C174.159 -4.4941 215.264 -4.47766 249.547 13.4812L248.584 14.8153C214.852 -2.85568 174.324 -2.83923 128.126 14.8624Z" fill="#3F3D56"/>
<path d="M451.636 14.8624L450.882 13.4342C497.668 -4.49373 538.773 -4.47729 573.056 13.4812L572.093 14.8153C538.36 -2.85607 497.834 -2.8404 451.636 14.8624Z" fill="#3F3D56"/>
<path d="M188.407 95.5697C204.142 95.5697 216.898 84.7037 216.898 71.2998C216.898 57.896 204.142 47.03 188.407 47.03C172.672 47.03 159.917 57.896 159.917 71.2998C159.917 84.7037 172.672 95.5697 188.407 95.5697Z" fill="#3F3D56"/>
<path d="M515.593 95.5697C531.328 95.5697 544.083 84.7037 544.083 71.2998C544.083 57.896 531.328 47.03 515.593 47.03C499.858 47.03 487.102 57.896 487.102 71.2998C487.102 84.7037 499.858 95.5697 515.593 95.5697Z" fill="#3F3D56"/>
<path d="M62.4962 297.557C91.936 297.557 115.802 277.227 115.802 252.149C115.802 227.071 91.936 206.741 62.4962 206.741C33.0563 206.741 9.19067 227.071 9.19067 252.149C9.19067 277.227 33.0563 297.557 62.4962 297.557Z" fill="#00BFA6"/>
<path d="M641.504 297.557C670.944 297.557 694.809 277.227 694.809 252.149C694.809 227.071 670.944 206.741 641.504 206.741C612.064 206.741 588.198 227.071 588.198 252.149C588.198 277.227 612.064 297.557 641.504 297.557Z" fill="#00BFA6"/>
<path d="M360.772 485.191C356.436 485.191 351.926 485.06 347.344 484.801C337.903 484.237 328.516 483.142 319.245 481.522C243.678 468.39 188.322 423.836 187.772 423.387L189.043 422.255C189.589 422.701 244.58 466.949 319.612 479.989C328.803 481.594 338.109 482.679 347.468 483.239C352.477 483.522 357.401 483.656 362.103 483.621C371.907 483.574 381.693 482.879 391.372 481.541C435.759 475.371 477.332 455.432 514.932 422.277L516.253 423.365C478.372 456.768 436.455 476.862 391.668 483.087C381.896 484.437 372.015 485.139 362.115 485.187C361.67 485.19 361.221 485.191 360.772 485.191Z" fill="#3F3D56"/>
<path d="M62.4961 298.34C50.1356 298.34 38.0526 295.218 27.7751 289.368C17.4977 283.518 9.48744 275.204 4.75726 265.476C0.0270838 255.748 -1.21055 245.044 1.20087 234.717C3.6123 224.39 9.56447 214.904 18.3047 207.459C27.0449 200.014 38.1807 194.943 50.3037 192.889C62.4268 190.835 74.9927 191.889 86.4123 195.919C97.832 199.948 107.593 206.771 114.46 215.526C121.327 224.281 124.992 234.574 124.992 245.103C124.973 259.218 118.383 272.749 106.667 282.73C94.9505 292.71 79.0653 298.324 62.4961 298.34ZM62.4961 193.432C50.4991 193.432 38.7715 196.462 28.7964 202.14C18.8212 207.818 11.0465 215.888 6.45547 225.329C1.86441 234.771 0.663178 245.16 3.00368 255.184C5.34418 265.207 11.1213 274.414 19.6045 281.64C28.0876 288.867 38.8959 293.788 50.6623 295.782C62.4288 297.775 74.6251 296.752 85.7089 292.841C96.7927 288.93 106.266 282.307 112.931 273.81C119.597 265.313 123.154 255.323 123.154 245.103C123.136 231.404 116.739 218.27 105.368 208.583C93.9961 198.896 78.578 193.447 62.4961 193.432Z" fill="#3F3D56"/>
<path d="M641.504 298.34C629.143 298.34 617.06 295.218 606.783 289.368C596.506 283.518 588.495 275.204 583.765 265.476C579.035 255.748 577.797 245.044 580.209 234.717C582.62 224.39 588.572 214.904 597.313 207.459C606.053 200.014 617.189 194.943 629.312 192.889C641.435 190.835 654.001 191.889 665.42 195.919C676.84 199.948 686.6 206.771 693.468 215.526C700.335 224.281 704 234.574 704 245.103C703.981 259.218 697.391 272.749 685.675 282.73C673.958 292.71 658.073 298.324 641.504 298.34ZM641.504 193.432C629.507 193.432 617.779 196.462 607.804 202.14C597.829 207.818 590.054 215.888 585.463 225.329C580.872 234.771 579.671 245.16 582.012 255.184C584.352 265.207 590.129 274.414 598.612 281.64C607.095 288.867 617.904 293.788 629.67 295.782C641.437 297.775 653.633 296.752 664.717 292.841C675.801 288.93 685.274 282.307 691.939 273.81C698.604 265.313 702.162 255.323 702.162 245.103C702.144 231.404 695.747 218.27 684.376 208.583C673.004 198.896 657.586 193.447 641.504 193.432Z" fill="#3F3D56"/>
<path d="M322.59 338.268C327.158 338.268 330.862 335.113 330.862 331.222C330.862 327.33 327.158 324.176 322.59 324.176C318.022 324.176 314.319 327.33 314.319 331.222C314.319 335.113 318.022 338.268 322.59 338.268Z" fill="#3F3D56"/>
<path d="M381.41 338.268C385.978 338.268 389.682 335.113 389.682 331.222C389.682 327.33 385.978 324.176 381.41 324.176C376.842 324.176 373.138 327.33 373.138 331.222C373.138 335.113 376.842 338.268 381.41 338.268Z" fill="#3F3D56"/>
<path d="M352 540.256C364.69 540.256 374.976 537.101 374.976 533.21C374.976 529.318 364.69 526.163 352 526.163C339.31 526.163 329.023 529.318 329.023 533.21C329.023 537.101 339.31 540.256 352 540.256Z" fill="#F2F2F2"/>
<path d="M544.489 458.305C535.073 444.752 516.444 444.121 516.444 444.121C516.444 444.121 498.291 442.143 486.647 462.785C475.793 482.024 460.813 500.6 484.235 505.104L488.466 493.887L491.086 505.939C494.421 506.143 497.766 506.192 501.107 506.085C526.19 505.395 550.078 506.287 549.309 498.619C548.286 488.427 553.549 471.346 544.489 458.305Z" fill="#2F2E41"/>
<path d="M482.898 576.995C482.621 578.486 482.22 579.957 481.696 581.399C481.107 582.811 480.198 584.116 479.659 585.542C477.942 590.087 480.322 595.155 484.124 598.663C487.422 601.694 491.678 603.847 496.379 604.862C499.841 605.493 503.371 605.809 506.911 605.805C516.699 606.088 526.74 606.341 536.015 603.661C538.945 602.794 541.776 601.698 544.47 600.389C545.321 600.044 546.071 599.541 546.664 598.917C547.286 598.004 547.562 596.95 547.456 595.898C547.435 592.364 546.594 588.847 546.794 585.316C546.904 583.36 547.334 581.406 547.122 579.457C546.83 577.242 545.741 575.159 544.005 573.493C542.269 571.826 539.971 570.657 537.425 570.145C534.761 569.795 532.049 569.795 529.386 570.146C522.432 570.715 515.449 570.981 508.464 570.943C501.327 570.904 494.234 569.976 487.132 569.879C485.032 569.85 485.075 570.402 484.406 572.133C483.79 573.727 483.286 575.35 482.898 576.995Z" fill="#2F2E41"/>
<path d="M503.152 489.712C502.94 491.265 502.328 492.758 501.359 494.085C500.118 495.532 498.093 496.358 496.757 497.742C494.747 499.826 494.631 502.758 494.623 505.455C494.615 507.94 494.675 510.59 496.301 512.652C497.459 513.934 498.896 515.013 500.533 515.831C506.633 519.332 513.225 522.897 520.579 523.013C523.627 523.06 526.894 522.39 528.899 520.435C529.765 519.516 530.446 518.482 530.914 517.373C532.794 513.424 533.934 509.248 534.292 504.998C534.563 503 534.344 500.975 533.649 499.053C532.755 496.931 530.949 495.185 529.755 493.173C528.343 490.78 527.827 488.077 528.276 485.427C528.335 485.24 528.317 485.042 528.224 484.865C528.125 484.771 528.003 484.697 527.866 484.65C527.728 484.603 527.58 484.583 527.433 484.592L512.849 483.698C511.491 483.641 510.139 483.509 508.8 483.304C508.014 483.167 505.938 482.216 505.188 482.469C503.801 482.937 503.437 488.444 503.152 489.712Z" fill="#FFB8B8"/>
<path opacity="0.1" d="M503.152 489.712C502.94 491.265 502.328 492.758 501.359 494.085C500.118 495.532 498.093 496.358 496.757 497.742C494.747 499.826 494.631 502.758 494.623 505.455C494.615 507.94 494.675 510.59 496.301 512.652C497.459 513.934 498.896 515.013 500.533 515.831C506.633 519.332 513.225 522.897 520.579 523.013C523.627 523.06 526.894 522.39 528.899 520.435C529.765 519.516 530.446 518.482 530.914 517.373C532.794 513.424 533.934 509.248 534.292 504.998C534.563 503 534.344 500.975 533.649 499.053C532.755 496.931 530.949 495.185 529.755 493.173C528.343 490.78 527.827 488.077 528.276 485.427C528.335 485.24 528.317 485.042 528.224 484.865C528.125 484.771 528.003 484.697 527.866 484.65C527.728 484.603 527.58 484.583 527.433 484.592L512.849 483.698C511.491 483.641 510.139 483.509 508.8 483.304C508.014 483.167 505.938 482.216 505.188 482.469C503.801 482.937 503.437 488.444 503.152 489.712Z" fill="black"/>
<path d="M517.098 491.378C528.915 491.378 538.493 483.218 538.493 473.153C538.493 463.087 528.915 454.927 517.098 454.927C505.282 454.927 495.703 463.087 495.703 473.153C495.703 483.218 505.282 491.378 517.098 491.378Z" fill="#FFB8B8"/>
<path d="M506.153 513.973C507.21 515.016 508.484 515.883 509.911 516.531C511.399 517.055 512.996 517.314 514.606 517.293C518.462 517.385 522.643 516.783 525.326 514.421C528.785 511.377 528.671 506.466 531.381 502.914C531.6 502.592 531.898 502.314 532.255 502.1C532.71 501.889 533.224 501.789 533.741 501.809C537.164 501.782 540.147 503.673 542.838 505.476C544.105 506.219 545.192 507.162 546.04 508.255C546.572 509.139 546.937 510.09 547.12 511.072C548.306 516.652 549.04 522.296 549.318 527.962C549.555 531.087 549.792 534.215 549.774 537.347C549.716 547.664 546.901 557.808 544.102 567.846C543.741 569.139 543.248 570.585 541.867 571.204C541.252 571.44 540.59 571.577 539.917 571.61C531.914 572.527 523.863 573.099 515.792 573.321C512.642 573.362 509.493 573.297 506.346 573.126C505.804 573.12 505.267 573.04 504.755 572.89C504.059 572.605 503.462 572.173 503.02 571.635C498.654 566.948 498.396 560.468 498.424 554.485C498.492 539.856 499.106 525.239 500.265 510.633C500.36 509.428 500.381 507.964 499.361 507.015C501.347 509.522 503.622 511.853 506.153 513.973Z" fill="#D0CDE1"/>
<path d="M501.621 492.929C500.898 494.044 495.571 496.81 494.542 497.734C488.796 502.894 478.308 502.7 473.052 508.227C471.31 510.253 470.11 512.58 469.536 515.043C468.536 518.478 468.003 522.225 469.677 525.464C471.288 528.581 474.678 530.736 476.981 533.52C479.508 536.577 480.645 540.288 481.734 543.911C482.538 546.585 483.349 549.326 483.036 552.074C482.68 555.198 480.905 558.059 479.857 561.068C478.809 564.078 478.628 567.662 481.051 570.027C482.831 571.765 485.624 572.454 488.292 572.841C491.71 573.279 495.157 573.534 498.613 573.606C501.664 573.721 505.026 573.744 507.372 572.078C508.249 571.371 508.947 570.519 509.422 569.573C509.897 568.627 510.138 567.608 510.131 566.579C510.102 564.526 509.864 562.479 509.42 560.461C509.095 558.351 508.97 556.223 508.865 554.097C508.396 544.559 508.332 535.014 508.673 525.463C508.845 523.478 508.731 521.482 508.333 519.521C507.679 516.966 506.058 514.683 504.705 512.335C502.002 507.914 500.778 502.944 501.166 497.97C501.575 492.859 504.192 488.964 501.621 492.929Z" fill="#00BFA6"/>
<path d="M531.665 493.317C532.766 494.281 536.506 494.598 537.906 495.219C539.223 495.737 540.597 496.143 542.009 496.429C547.116 497.684 551.974 499.583 556.421 502.064C557.345 502.524 558.162 503.125 558.831 503.837C559.536 504.814 559.99 505.907 560.164 507.044C560.987 509.914 561.397 512.858 561.385 515.813C561.221 518.942 560.114 521.973 559.017 524.963L554.914 536.135C551.853 544.473 548.771 552.894 547.91 561.601C547.433 566.426 547.645 571.282 548.541 576.064C548.625 576.297 548.65 576.542 548.614 576.784C548.579 577.025 548.483 577.257 548.334 577.465C548.064 577.693 547.708 577.832 547.329 577.859C545.349 578.123 543.433 577.263 541.64 576.502C536.157 574.177 530.306 572.547 524.271 571.66C526.629 568.757 528.449 565.562 529.665 562.187C530.357 560.044 530.901 557.869 531.295 555.672L533.204 546.27C533.98 542.834 534.527 539.363 534.841 535.874C534.985 534.564 534.895 533.244 534.575 531.957C534.135 530.733 533.551 529.55 532.832 528.425C529.687 522.853 528.212 516.494 529.449 510.401C529.991 507.735 531.043 505.065 530.604 502.385C530.182 499.808 530.621 497.806 529.845 495.256C526.658 484.786 529.595 491.504 531.665 493.317Z" fill="#00BFA6"/>
<path d="M472.998 517.037C471.564 519.572 469.167 521.731 468.351 524.457C468.034 525.731 467.898 527.033 467.946 528.335C467.804 530.297 468.032 532.265 468.621 534.166C469.077 535.368 469.817 536.477 470.351 537.655C471.095 539.302 471.426 541.063 471.324 542.825C471.18 545.266 470.206 547.636 470.13 550.079C470.011 553.922 472.097 557.534 474.133 560.965C474.645 559.884 475.429 558.911 476.429 558.115C477.428 557.319 478.62 556.719 479.921 556.356C481.221 555.993 482.599 555.877 483.958 556.015C485.317 556.154 486.624 556.543 487.788 557.157C488.254 556.669 488.475 556.044 488.403 555.418C488.553 550.96 488.699 546.502 488.838 542.044C489.059 535.149 489.269 528.162 487.407 521.449C486.707 518.378 485.147 515.496 482.86 513.048C481.597 511.811 477.311 508.55 475.238 509.937C474.306 510.56 474.524 512.258 474.376 513.117C474.153 514.476 473.688 515.798 472.998 517.037Z" fill="#00BFA6"/>
<path d="M561.804 509.734C562.38 511.561 562.627 513.453 562.536 515.344C562.563 519.198 562.503 523.051 562.356 526.904C562.378 528.88 562.082 530.849 561.474 532.756C561.011 533.997 560.297 535.16 559.819 536.396C558.386 540.1 559.169 544.118 559.292 548.017C559.378 549.279 559.252 550.545 558.916 551.776C558.16 554.193 556.128 556.146 554.709 558.336C553.362 560.416 552.549 562.748 550.94 564.688C549.331 566.629 546.546 568.166 543.846 567.571C541.8 567.119 540.347 565.577 539.341 563.994C537.147 560.513 536.397 556.503 537.212 552.613C538.221 547.881 541.484 543.683 542.661 538.979C544.277 532.519 541.821 525.853 541.894 519.249C541.861 518.213 542.026 517.18 542.382 516.19C543.141 514.725 544.215 513.395 545.55 512.267C547.08 510.755 548.502 509.166 549.808 507.507C550.684 506.394 551.875 503.529 553.43 503.29C556.9 502.759 560.943 507.45 561.804 509.734Z" fill="#00BFA6"/>
<path d="M454.989 574.122C453.07 573.711 451.092 573.532 449.115 573.59C447.037 573.688 445.007 574.161 443.16 574.979C441.314 575.797 439.693 576.94 438.405 578.333C437.118 579.726 436.193 581.336 435.692 583.057C435.192 584.778 435.127 586.569 435.503 588.313C435.982 590.202 436.765 592.025 437.83 593.732C439.388 596.425 441.257 599.112 444.141 600.838C445.879 601.787 447.75 602.545 449.71 603.096L464.9 607.971C467.135 608.688 469.37 609.405 471.626 610.07C482.964 613.408 494.784 615.41 506.759 616.019C510.403 616.31 514.076 616.152 517.667 615.549C518.535 615.452 519.331 615.086 519.901 614.52C520.191 614.091 520.361 613.61 520.4 613.116L521.335 607.542C521.544 606.766 521.517 605.957 521.255 605.192C520.706 604.294 519.816 603.58 518.73 603.165C508.744 598.279 497.084 595.584 488.678 588.878C486.699 587.299 485.043 584.797 482.639 583.725C479.913 582.509 476.702 581.815 473.884 580.694C467.723 578.244 461.666 575.429 454.989 574.122Z" fill="#2F2E41"/>
<path opacity="0.1" d="M470.154 581.637C475.523 583.07 498.191 592.999 502.076 596.465C501.556 596.625 483.885 588.189 483.355 588.054C478.495 586.917 473.735 585.488 469.112 583.778C468.191 583.415 463.13 581.71 463.36 580.721C463.618 579.604 469.201 581.382 470.154 581.637Z" fill="black"/>
<path d="M537.136 618.91C537.441 618.929 537.743 618.854 537.987 618.697C538.094 618.58 538.173 618.446 538.218 618.303C538.264 618.159 538.276 618.01 538.253 617.863L538.228 610.269C535.599 609.343 532.818 608.771 529.983 608.574L516.85 607.079C517.152 607.113 514.797 611.897 515.158 612.536C515.794 613.662 520.658 614.659 522.031 615.191C526.803 617.038 531.761 619.069 537.136 618.91Z" fill="#FFB8B8"/>
<path d="M495.933 610.242C493.453 610.579 490.686 610.876 489.08 612.52C487.044 614.605 487.911 617.714 488.882 620.297C488.941 620.63 489.079 620.95 489.285 621.237C489.492 621.525 489.765 621.774 490.087 621.97C490.409 622.166 490.774 622.305 491.16 622.379C491.546 622.453 491.946 622.46 492.335 622.4C494.596 622.522 497.003 622.618 498.979 621.673C499.873 621.169 500.735 620.624 501.559 620.039C503.016 619.213 504.618 618.59 506.304 618.191C509.404 617.36 512.596 616.8 515.829 616.519C517.103 616.47 518.364 616.28 519.581 615.956C520.189 615.789 520.743 615.505 521.202 615.126C521.66 614.747 522.009 614.283 522.223 613.77C522.681 612.39 521.739 610.983 520.836 609.773C519.796 608.188 518.445 606.766 516.842 605.568C514.395 603.949 513.185 605.192 510.72 606.228C506.055 608.189 501.07 609.543 495.933 610.242Z" fill="#FFB8B8"/>
<path d="M489.453 612.145L473.709 608.181C471.821 607.621 469.848 607.295 467.85 607.214C466.85 607.179 465.853 607.326 464.925 607.646C463.997 607.965 463.16 608.45 462.47 609.067C461.249 610.288 460.9 611.956 460.595 613.539L459.944 616.924C459.51 618.63 459.387 620.383 459.58 622.122C459.685 622.991 460.021 623.829 460.563 624.571C461.105 625.313 461.838 625.94 462.707 626.404C464.886 627.417 467.556 626.922 469.988 626.499C474.899 625.644 479.895 625.187 484.908 625.136C486.792 625.117 488.769 625.137 490.434 624.385C491.4 623.897 492.212 623.215 492.799 622.399C493.386 621.583 493.73 620.657 493.801 619.701C494.111 616.81 492.979 613.033 489.453 612.145Z" fill="#2F2E41"/>
<path d="M543.324 608.691C545.365 608.386 547.167 607.398 549.122 606.814C551.875 605.993 554.858 605.994 557.775 606.003C558.847 605.919 559.925 606.103 560.877 606.532C562.161 607.26 562.491 608.718 562.709 610.02L564.027 617.872C564.38 619.337 564.416 620.845 564.135 622.321C563.982 623.058 563.601 623.746 563.03 624.315C562.459 624.884 561.72 625.312 560.889 625.554C558.83 626.01 556.812 624.89 554.868 624.154C550.009 622.314 544.362 622.785 539.296 621.41C538.812 621.327 538.353 621.158 537.952 620.913C537.55 620.668 537.214 620.354 536.965 619.99C536.792 619.554 536.73 619.091 536.784 618.633C536.871 616.109 536.246 612.663 537.138 610.251C537.94 608.081 541.046 608.691 543.324 608.691Z" fill="#2F2E41"/>
<path d="M576.642 570.961C579.788 570.289 583.049 570.1 586.273 570.401C588.848 570.643 591.501 571.253 593.381 572.771C595.669 574.619 596.404 577.476 596.465 580.161C596.566 585.51 594.483 590.722 590.574 594.907C589.619 595.966 588.484 596.897 587.205 597.669C585.827 598.404 584.357 599.007 582.823 599.468L548.806 610.898C539.857 613.905 530.876 616.92 521.542 618.903C521.286 619.008 521.009 619.068 520.726 619.08C520.443 619.093 520.16 619.056 519.894 618.974C519.627 618.892 519.383 618.765 519.175 618.601C518.967 618.437 518.799 618.239 518.682 618.02C515.702 614.393 513.201 610.497 511.227 606.402C511.133 606.304 511.069 606.189 511.038 606.066C511.008 605.943 511.013 605.816 511.053 605.695C511.093 605.574 511.166 605.462 511.267 605.371C511.368 605.279 511.494 605.209 511.633 605.167L535.694 593.391C537.458 592.607 539.102 591.642 540.591 590.517C541.631 589.658 542.482 588.648 543.105 587.535C543.604 586.648 543.65 584.553 544.287 583.898C544.911 583.255 547.045 583.204 548.03 582.952C549.42 582.589 550.781 582.151 552.105 581.639C557.487 579.588 562.28 576.608 567.439 574.207C570.333 572.797 573.426 571.707 576.642 570.961Z" fill="#2F2E41"/>
<path opacity="0.1" d="M563.002 579.756C558.868 582.401 553.516 584.832 549.419 587.546C548.021 588.473 524.711 599.636 524.382 601.118C528.204 601.667 552.552 587.157 556.036 585.709C559.461 584.158 562.689 582.31 565.667 580.193C566.447 579.677 569.752 578.124 567.513 577.547C566.252 577.222 563.933 579.227 563.002 579.756Z" fill="black"/>
<path d="M540.326 456.999L521.921 448.787L496.506 452.146L491.248 471.93L504.337 471.501L507.994 464.233V471.381L514.034 471.183L517.539 459.612L519.73 471.93L541.202 471.557L540.326 456.999Z" fill="#2F2E41"/>
<path d="M536.218 497.583H496.614V538.299H536.218V497.583Z" fill="#3F3D56"/>
<path d="M477.813 568.399C478.645 569.605 479.828 570.607 481.248 571.31C482.179 571.673 483.196 571.849 484.219 571.825C485.243 571.802 486.246 571.58 487.153 571.175C488.965 570.348 490.448 569.081 491.415 567.536C493.415 564.527 493.83 560.926 493.58 557.475C493.33 554.024 492.465 550.626 492.083 547.184C491.804 544.681 491.782 542.164 491.759 539.651C491.69 539.122 491.82 538.589 492.131 538.127C492.666 537.674 493.357 537.38 494.104 537.288C498.141 536.266 500.82 533.043 502.741 529.851C504.024 527.719 505.139 525.389 504.892 523.003C504.645 520.617 502.631 518.213 499.834 517.97C497.527 517.769 495.398 519.017 493.734 520.392C489.538 523.883 486.841 528.475 486.076 533.429C485.711 535.855 485.816 538.347 485.041 540.703C483.387 545.732 478.212 548.815 475.633 553.34C472.791 558.326 474.36 563.987 477.813 568.399Z" fill="#FFB8B8"/>
<path d="M553.967 549.186C553.379 550.353 552.522 551.407 551.448 552.286C550.373 553.166 549.102 553.853 547.711 554.308C545.981 554.899 544.073 554.999 542.272 554.591C541.378 554.38 540.554 553.996 539.863 553.47C539.172 552.943 538.633 552.288 538.287 551.555C538.012 550.817 537.861 550.049 537.838 549.275C537.58 545.884 537.68 542.389 539.126 539.222C539.683 538 540.436 536.841 540.876 535.585C541.308 534.135 541.53 532.644 541.535 531.148L542.01 521.894C542.089 521.223 542.034 520.544 541.849 519.888C541.375 518.549 539.906 517.679 538.558 516.881C535.303 514.952 532.086 512.702 530.509 509.604C529.967 508.671 529.773 507.619 529.952 506.589C530.397 504.752 532.574 503.562 534.725 503.162C536.133 502.899 537.589 502.883 539.004 503.112C540.42 503.342 541.766 503.814 542.962 504.498C544.158 505.183 545.179 506.067 545.963 507.097C546.747 508.127 547.279 509.281 547.525 510.491C547.738 511.535 547.735 512.601 547.86 513.656C548.124 515.893 548.958 518.049 549.479 520.253C550.764 525.682 550.098 531.294 551.369 536.721C552.431 541.259 556.436 544.221 553.967 549.186Z" fill="#FFB8B8"/>
<path d="M517.431 517.552C520.984 517.552 523.864 515.098 523.864 512.071C523.864 509.045 520.984 506.591 517.431 506.591C513.878 506.591 510.997 509.045 510.997 512.071C510.997 515.098 513.878 517.552 517.431 517.552Z" fill="#00BFA6"/>
<path d="M194.841 87.7407C198.901 87.7407 202.193 84.9365 202.193 81.4775C202.193 78.0184 198.901 75.2143 194.841 75.2143C190.78 75.2143 187.488 78.0184 187.488 81.4775C187.488 84.9365 190.78 87.7407 194.841 87.7407Z" fill="#F2F2F2"/>
<path d="M524.783 87.7407C528.844 87.7407 532.136 84.9365 532.136 81.4775C532.136 78.0184 528.844 75.2143 524.783 75.2143C520.722 75.2143 517.431 78.0184 517.431 81.4775C517.431 84.9365 520.722 87.7407 524.783 87.7407Z" fill="#F2F2F2"/>
</g>
<defs>
<clipPath id="clip0">
<rect width="704" height="627" fill="white"/>
</clipPath>
</defs>
</svg>
